<mxfile host="app.diagrams.net" modified="2021-11-15T12:47:49.286Z" agent="5.0 (Macintosh; Intel Mac OS X 10_15_7) AppleWebKit/537.36 (KHTML, like Gecko) Chrome/86.0.4240.193 Safari/537.36" etag="0yHtaqXt2jYpa6Yu-ivG" version="15.7.3" type="github">
  <diagram id="YTU2Lxhsx-NlhrjXAhpr" name="Page-1">
    <mxGraphModel dx="946" dy="536" grid="1" gridSize="10" guides="1" tooltips="1" connect="1" arrows="1" fold="1" page="1" pageScale="1" pageWidth="827" pageHeight="1169" math="0" shadow="0">
      <root>
        <mxCell id="0" />
        <mxCell id="1" parent="0" />
        <mxCell id="UFAUsOjedUkf1D2MYe-L-1" value="&lt;pre&gt;PullCallback&lt;/pre&gt;&lt;pre&gt;收到消息的回调类&lt;/pre&gt;" style="rounded=0;whiteSpace=wrap;html=1;" vertex="1" parent="1">
          <mxGeometry x="130" y="170" width="120" height="60" as="geometry" />
        </mxCell>
        <mxCell id="UFAUsOjedUkf1D2MYe-L-2" value="&lt;pre&gt;&lt;font face=&quot;Helvetica&quot;&gt;&lt;span&gt;将消息放入&lt;/span&gt;&lt;/font&gt;PullResult的ProcessQueue中&lt;/pre&gt;" style="rounded=0;whiteSpace=wrap;html=1;" vertex="1" parent="1">
          <mxGeometry x="60" y="260" width="290" height="60" as="geometry" />
        </mxCell>
        <mxCell id="UFAUsOjedUkf1D2MYe-L-3" value="&lt;pre&gt;ConsumeMessageConcurrentlyService&lt;/pre&gt;&lt;pre&gt;#submitConsumeRequest&lt;/pre&gt;&lt;pre&gt;将要消费的消息构造成ConsumeRequest请求&lt;/pre&gt;&lt;pre&gt;然后放入线程池&lt;/pre&gt;" style="rounded=0;whiteSpace=wrap;html=1;" vertex="1" parent="1">
          <mxGeometry x="60" y="360" width="290" height="100" as="geometry" />
        </mxCell>
        <mxCell id="UFAUsOjedUkf1D2MYe-L-5" value="&lt;pre&gt;ConsumeRequest&lt;/pre&gt;&lt;pre&gt;消息消费的具体逻辑&lt;/pre&gt;" style="rounded=0;whiteSpace=wrap;html=1;" vertex="1" parent="1">
          <mxGeometry x="130" y="510" width="150" height="60" as="geometry" />
        </mxCell>
        <mxCell id="UFAUsOjedUkf1D2MYe-L-6" value="&lt;pre&gt;ConsumeMessageConcurrentlyService&lt;/pre&gt;&lt;pre&gt;#processConsumeResult&lt;/pre&gt;&lt;pre&gt;处理消费结果&lt;/pre&gt;" style="rounded=0;whiteSpace=wrap;html=1;" vertex="1" parent="1">
          <mxGeometry x="60" y="600" width="290" height="100" as="geometry" />
        </mxCell>
        <mxCell id="UFAUsOjedUkf1D2MYe-L-7" value="通过OffsetStore将队列的消费进度持久化到本地" style="rounded=0;whiteSpace=wrap;html=1;" vertex="1" parent="1">
          <mxGeometry x="420" y="740" width="120" height="60" as="geometry" />
        </mxCell>
      </root>
    </mxGraphModel>
  </diagram>
</mxfile>
